<svg width="21" height="21" viewBox="0 0 21 21" fill="none" xmlns="http://www.w3.org/2000/svg">
<path d="M20.3689 10.7281C20.3698 10.0466 20.3117 9.3664 20.1955 8.69482H10.6997V12.546H16.1385C16.0272 13.1611 15.7916 13.7475 15.446 14.2697C15.1004 14.792 14.6518 15.2393 14.1274 15.5848V18.0846H17.3733C19.2739 16.3444 20.3689 13.771 20.3689 10.7281Z" fill="#4285F4"/>
<path d="M10.6998 20.5C13.4171 20.5 15.705 19.6139 17.3734 18.0862L14.1275 15.5864C13.2241 16.1947 12.0605 16.5419 10.6998 16.5419C8.0734 16.5419 5.8442 14.7836 5.04706 12.4143H1.70325V14.9906C2.54132 16.6467 3.82641 18.0389 5.41506 19.0118C7.0037 19.9847 8.83336 20.4999 10.6998 20.5Z" fill="#34A853"/>
<path d="M5.04698 12.414C4.62556 11.1724 4.62556 9.82793 5.04698 8.58639V6.01013H1.70317C0.998154 7.40333 0.630981 8.94096 0.630981 10.5002C0.630981 12.0594 0.998154 13.597 1.70317 14.9902L5.04698 12.414Z" fill="#FBBC04"/>
<path d="M10.6998 4.45879C12.1357 4.43549 13.5233 4.97429 14.5624 5.95872L17.4363 3.10469C15.614 1.40488 13.1998 0.471659 10.6998 0.500656C8.83336 0.500741 7.0037 1.01598 5.41506 1.98886C3.82641 2.96174 2.54132 4.35397 1.70325 6.0101L5.04706 8.58636C5.8442 6.21704 8.0734 4.45879 10.6998 4.45879Z" fill="#EA4335"/>
</svg>
